<svg xmlns="http://www.w3.org/2000/svg" xmlns:svg="http://www.w3.org/2000/svg" xmlns:xlink="http://www.w3.org/1999/xlink" id="svg11300" width="48" height="48" version="1.1"><defs id="defs3"><linearGradient id="linearGradient3264"><stop id="stop3266" offset="0" stop-color="#c9c9c9" stop-opacity="1"/><stop id="stop3276" offset=".25" stop-color="#f8f8f8" stop-opacity="1"/><stop id="stop3272" offset=".5" stop-color="#e2e2e2" stop-opacity="1"/><stop id="stop3274" offset=".75" stop-color="#b0b0b0" stop-opacity="1"/><stop id="stop3268" offset="1" stop-color="#c9c9c9" stop-opacity="1"/></linearGradient><linearGradient id="linearGradient3256"><stop id="stop3258" offset="0" stop-color="#000" stop-opacity="1"/><stop id="stop3260" offset="1" stop-color="#000" stop-opacity="0"/></linearGradient><radialGradient id="radialGradient3262" cx="25.456" cy="39.161" r="19.622" fx="25.456" fy="39.161" gradientTransform="matrix(1.000000,0.000000,0.000000,0.315315,0.000000,26.81305)" gradientUnits="userSpaceOnUse" xlink:href="#linearGradient3256"/><linearGradient id="linearGradient3281" x1="14.463" x2="34.534" y1="12.285" y2="39.685" gradientTransform="matrix(1.241935,0.000000,0.000000,1.241935,-5.027508,-7.208988)" gradientUnits="userSpaceOnUse" xlink:href="#linearGradient3264"/><linearGradient id="aigrd1" x1="4.191" x2="47.32" y1="11.113" y2="56.052" gradientUnits="userSpaceOnUse"><stop id="stop6490" offset="0" stop-color="#D4D4D4"/><stop id="stop6492" offset=".398" stop-color="#E2E2E2"/><stop id="stop6494" offset="1" stop-color="#FFF"/></linearGradient><linearGradient id="linearGradient6525" x1="4.191" x2="47.32" y1="11.113" y2="56.052" gradientUnits="userSpaceOnUse"><stop id="stop6529" offset="0" stop-color="#fff" stop-opacity="1"/><stop id="stop6531" offset="1" stop-color="#fff" stop-opacity=".34"/></linearGradient><linearGradient id="linearGradient5048"><stop id="stop5050" offset="0" stop-color="#000" stop-opacity="0"/><stop id="stop5056" offset=".5" stop-color="#000" stop-opacity="1"/><stop id="stop5052" offset="1" stop-color="#000" stop-opacity="0"/></linearGradient><linearGradient id="linearGradient5060"><stop id="stop5062" offset="0" stop-color="#000" stop-opacity="1"/><stop id="stop5064" offset="1" stop-color="#000" stop-opacity="0"/></linearGradient><radialGradient id="radialGradient6719" cx="605.714" cy="486.648" r="117.143" fx="605.714" fy="486.648" gradientTransform="matrix(-2.774389,0,0,1.969706,112.7623,-872.8854)" gradientUnits="userSpaceOnUse" xlink:href="#linearGradient5060"/><linearGradient id="linearGradient4223" x1="302.857" x2="302.857" y1="366.648" y2="609.505" gradientTransform="matrix(2.774389,0,0,1.969706,-1892.179,-872.8854)" gradientUnits="userSpaceOnUse" xlink:href="#linearGradient5048"/><radialGradient id="radialGradient4225" cx="605.714" cy="486.648" r="117.143" fx="605.714" fy="486.648" gradientTransform="matrix(2.774389,0,0,1.969706,-1891.633,-872.8854)" gradientUnits="userSpaceOnUse" xlink:href="#linearGradient5060"/><radialGradient id="radialGradient4227" cx="605.714" cy="486.648" r="117.143" fx="605.714" fy="486.648" gradientTransform="matrix(-2.774389,0,0,1.969706,112.7623,-872.8854)" gradientUnits="userSpaceOnUse" xlink:href="#linearGradient5060"/><linearGradient id="linearGradient4229" x1="4.191" x2="47.32" y1="11.113" y2="56.052" gradientUnits="userSpaceOnUse" xlink:href="#aigrd1"/><linearGradient id="linearGradient4231" x1="8.547" x2="30.851" y1="30.282" y2="48.302" gradientTransform="matrix(0.899009,0,0,0.934235,1.875108,1.193645)" gradientUnits="userSpaceOnUse" xlink:href="#linearGradient6525"/></defs><metadata id="metadata4"/><g id="layer1"><path id="path3254" fill="url(#radialGradient3262)" fill-opacity="1" fill-rule="nonzero" stroke="none" stroke-dasharray="none" stroke-dashoffset="0" stroke-linecap="butt" stroke-linejoin="miter" stroke-miterlimit="4" stroke-opacity="1" stroke-width="1" marker-end="none" marker-mid="none" marker-start="none" d="M 45.078058 39.161163 A 19.622213 6.1871843 0 1 1 5.8336315,39.161163 A 19.622213 6.1871843 0 1 1 45.078058 39.161163 z" color="#000" display="inline" opacity=".409" overflow="visible" transform="translate(-0.883885,2.474874)" visibility="visible" style="marker:none"/><path id="path3243" fill="url(#linearGradient3281)" fill-opacity="1" fill-rule="nonzero" stroke="gray" stroke-dasharray="none" stroke-dashoffset="0" stroke-linecap="butt" stroke-linejoin="miter" stroke-miterlimit="4" stroke-opacity="1" stroke-width="1" marker-end="none" marker-mid="none" marker-start="none" d="M 23.25 0.46875 C 22.784561 0.50059628 22.332166 0.57268469 21.875 0.625 L 21.84375 0.625 L 20.75 6.59375 C 18.967275 6.9997399 17.290091 7.6887415 15.78125 8.625 L 10.875 5.09375 C 9.5487118 6.1234406 8.3418016 7.3243453 7.28125 8.625 L 10.6875 13.59375 C 9.6532671 15.174265 8.8755317 16.978974 8.4375 18.875 C 8.437425 18.883963 8.4374391 18.904688 8.4375 18.90625 L 2.5 19.84375 C 2.3914467 20.730383 2.34375 21.646689 2.34375 22.5625 C 2.3437501 23.3118 2.3644394 24.051089 2.4375 24.78125 L 8.375 25.84375 C 8.797279 27.905642 9.5994587 29.831262 10.71875 31.53125 L 7.1875 36.375 C 8.1988261 37.630518 9.3663917 38.773616 10.625 39.78125 L 15.625 36.34375 C 17.372433 37.458467 19.323083 38.240124 21.4375 38.625 L 22.375 44.53125 C 23.041183 44.591889 23.724349 44.59375 24.40625 44.59375 C 25.368935 44.593749 26.288487 44.557267 27.21875 44.4375 L 28.34375 38.40625 C 30.351311 37.906649 32.237219 37.03996 33.875 35.875 L 38.6875 39.375 C 39.935528 38.313203 41.076777 37.092744 42.0625 35.78125 L 38.5625 30.71875 C 39.510353 29.08176 40.167129 27.275609 40.5 25.34375 L 46.40625 24.40625 C 46.458044 23.789904 46.46875 23.192163 46.46875 22.5625 C 46.46875 21.468286 46.341568 20.395416 46.1875 19.34375 L 40.1875 18.25 C 39.717306 16.513776 38.945824 14.893898 37.96875 13.4375 L 41.5 8.59375 C 40.405427 7.2551429 39.156822 6.0185688 37.78125 4.96875 L 32.6875 8.46875 C 31.223504 7.6029126 29.648037 6.9385679 27.9375 6.5625 L 27 0.625 C 26.146701 0.52462461 25.286379 0.46875 24.40625 0.46875 C 24.168378 0.46875001 23.923566 0.4612654 23.6875 0.46875 C 23.572417 0.47239881 23.458534 0.4620551 23.34375 0.46875 C 23.312662 0.4705632 23.281029 0.46662691 23.25 0.46875 z M 24.0625 15.65625 C 24.176666 15.650457 24.290652 15.65625 24.40625 15.65625 C 28.105377 15.65625 31.125 18.675874 31.125 22.375 C 31.125001 26.074126 28.105376 29.0625 24.40625 29.0625 C 20.707125 29.062501 17.71875 26.074126 17.71875 22.375 C 17.718751 18.791473 20.52335 15.835842 24.0625 15.65625 z" color="#000" display="inline" opacity="1" overflow="visible" visibility="visible" style="marker:none"/><path id="path3283" fill="none" fill-opacity="1" fill-rule="nonzero" stroke="#fff" stroke-dasharray="none" stroke-dashoffset="0" stroke-linecap="butt" stroke-linejoin="miter" stroke-miterlimit="4" stroke-opacity="1" stroke-width="1.649" marker-end="none" marker-mid="none" marker-start="none" d="M 36.239223 23.781593 A 12.727922 12.727922 0 1 1 10.783379,23.781593 A 12.727922 12.727922 0 1 1 36.239223 23.781593 z" color="#000" display="inline" opacity=".648" overflow="visible" transform="matrix(0.606518,0.000000,0.000000,0.606518,10.15021,7.936835)" visibility="visible" style="marker:none"/><path stroke-width="1" style="marker:none" id="path3285" fill="none" fill-opacity="1" fill-rule="nonzero" stroke="#fff" stroke-dasharray="none" stroke-dashoffset="0" stroke-linecap="butt" stroke-linejoin="miter" stroke-miterlimit="4" stroke-opacity="1" marker-end="none" marker-mid="none" marker-start="none" d="M 22.557788,1.6501132 L 21.679599,7.4291233 C 20.008601,7.8096689 16.934874,8.9735344 15.520595,9.8511162 L 10.848562,6.3639293 C 9.6053938,7.3290873 9.5201391,7.3945394 8.5260544,8.6136804 L 11.904107,13.623634 C 10.934692,15.105095 9.7703031,17.745129 9.3522336,19.631722 C 9.3522336,19.631722 3.4328248,20.629563 3.4328248,20.629563 C 3.3310749,21.460629 3.3799751,23.239361 3.4484569,23.923761 L 9.1027005,24.942349 C 9.4985145,26.875018 10.979731,29.985937 12.028874,31.579383 L 8.4532981,36.303427 C 9.4012426,37.480259 9.5909623,37.587948 10.770691,38.532432 L 15.551859,35.029612 C 17.189777,36.074467 20.440892,37.345498 22.422794,37.706253 L 23.207481,43.412507 C 23.831913,43.469346 25.556962,43.628788 26.428924,43.516527 L 27.307112,37.576373 C 29.188855,37.108084 32.440272,35.773413 33.97541,34.681463 L 38.751465,38.132271 C 39.921276,37.13702 39.931757,36.987055 40.855703,35.757755 L 37.316505,30.727054 C 38.204954,29.192656 39.353733,26.191831 39.665742,24.381045 L 45.460384,23.419582 C 45.508931,22.841863 45.511294,21.230793 45.366882,20.245037 L 39.463105,19.226449 C 39.022378,17.599038 37.509894,14.666467 36.594056,13.301345 L 40.346408,8.5773019 C 39.320436,7.3225876 38.938964,7.150431 37.649602,6.1664065 L 32.707289,9.7056032 C 31.335043,8.8940304 28.598675,7.6568558 26.995341,7.3043568 L 26.122266,1.6501132 C 25.322445,1.5560285 23.014871,1.5978075 22.557788,1.6501132 z" color="#000" display="inline" opacity=".347" overflow="visible" visibility="visible"/><g id="g6707" display="inline" transform="matrix(0.01610117,0,0,0.01485127,45.942866,42.853058)"><rect id="rect6709" width="1339.633" height="478.357" x="-1559.252" y="-150.697" fill="url(#linearGradient4223)" fill-opacity="1" fill-rule="nonzero" stroke="none" stroke-width="1" color="#000" display="inline" opacity=".402" overflow="visible" visibility="visible" style="marker:none"/><path id="path6711" fill="url(#radialGradient4225)" fill-opacity="1" fill-rule="nonzero" stroke="none" stroke-width="1" d="m -219.61876,-150.68038 c 0,0 0,478.33079 0,478.33079 142.874166,0.90045 345.40022,-107.16966 345.40014,-239.196175 0,-132.026537 -159.436816,-239.134595 -345.40014,-239.134615 z" color="#000" display="inline" opacity=".402" overflow="visible" visibility="visible" style="marker:none"/><path d="m -1559.2523,-150.68038 c 0,0 0,478.33079 0,478.33079 -142.8742,0.90045 -345.4002,-107.16966 -345.4002,-239.196175 0,-132.026537 159.4368,-239.134595 345.4002,-239.134615 z" style="marker:none" id="path6713" fill="url(#radialGradient4227)" fill-opacity="1" fill-rule="nonzero" stroke="none" stroke-width="1" color="#000" display="inline" opacity=".402" overflow="visible" visibility="visible"/></g><g id="g3937" transform="matrix(1.114983,0,0.0050596,1.114983,8.5601433,-2.1960111)"><path id="path6485" fill="#c00" fill-rule="nonzero" stroke="#9f0000" stroke-dasharray="none" stroke-miterlimit="4" stroke-opacity="1" stroke-width=".638" d="M 33.282781,38.644744 22.407791,18.394765 c -0.312499,-0.562499 -0.874999,-0.874998 -1.499998,-0.874998 -0.625,0 -1.187499,0.374998 -1.499998,0.937498 L 8.7828048,38.707245 c -0.25,0.499999 -0.25,1.187499 0.0625,1.687498 0.312499,0.5 0.812499,0.749999 1.4374992,0.749999 l 21.499978,0 c 0.624999,0 1.187498,-0.312499 1.437499,-0.812499 0.312499,-0.5 0.312499,-1.124999 0.0625,-1.687499 z" transform="matrix(1,0,-0.00872668,1,0.328074,1.276596)"/><g id="g6487" fill-rule="nonzero" stroke="#000" stroke-miterlimit="4" transform="matrix(0.625,0,-0.00553493,0.634254,6.164053,15.76055)"><linearGradient id="linearGradient4045" x1="4.191" x2="47.32" y1="11.113" y2="56.052" gradientUnits="userSpaceOnUse"><stop id="stop4047" offset="0" stop-color="#fff" stop-opacity="1"/><stop id="stop4049" offset="1" stop-color="#fff" stop-opacity=".34"/></linearGradient><path id="path6496" fill="url(#linearGradient4229)" stroke="none" d="m 9.5,37.6 c -0.3,0.5 0,0.9 0.5,0.9 l 28.2,0 c 0.5,0 0.8,-0.4 0.5,-0.9 L 24.4,11 c -0.3,-0.5 -0.7,-0.5 -0.9,0 l -14,26.6 z"/></g><path id="path1325" fill="none" stroke="url(#linearGradient4231)" stroke-dasharray="none" stroke-miterlimit="4" stroke-opacity="1" stroke-width=".638" d="M 32.323106,38.183905 22.150271,19.265666 c -0.433291,-0.814976 -0.588573,-1.076453 -1.241865,-1.076453 -0.561881,0 -0.854279,0.380807 -1.257101,1.150078 L 9.7489285,38.242296 c -0.5751636,1.061292 -0.6361047,1.337932 -0.3551641,1.805049 0.280939,0.467117 0.6390326,0.441675 1.9626766,0.472146 l 19.618152,0 c 1.232232,0.01523 1.509395,-0.07865 1.734147,-0.545771 0.280941,-0.467118 0.159059,-0.83772 -0.385634,-1.789815 z" opacity=".5" transform="matrix(1,0,-0.00872668,1,0.318277,1.276596)"/></g><g id="g6498" fill-rule="nonzero" stroke="#000" stroke-miterlimit="4" transform="matrix(0.61891367,0,0,0.61887355,17.35582,17.652873)"><path id="path6500" stroke="none" d="m 23.9,36.5 c -1.3,0 -2.3,-1 -2.3,-2.3 0,-1.4 0.9,-2.3 2.3,-2.3 1.4,0 2.2,0.9 2.3,2.3 0,1.3 -0.9,2.3 -2.3,2.3 l 0,0 z m -1.4,-5.9 -0.6,-11.5 4,0 -0.6,11.5 -2.9,0 0.1,0 z"/></g></g></svg>